<svg xmlns="http://www.w3.org/2000/svg" viewBox="0 0 25 200">
  <style>
    .st0{fill:none;stroke:#FFFFFF;stroke-width:2;stroke-linecap:round;stroke-linejoin:round;stroke-miterlimit:10;} .st1{fill-rule:evenodd;clip-rule:evenodd;} .st2{fill-rule:evenodd;clip-rule:evenodd;fill:#C13832;} .st3{fill:none;stroke:#000000;stroke-width:2;stroke-linecap:round;stroke-linejoin:round;stroke-miterlimit:10;} .st4{fill:#231F20;} .st5{fill:#E66000;}
  </style>
  <path class="st0" d="M5.3 1.5h14M5.3 6.5h14M5.3 12.5h14M6.3 34.6l12.9-12.9M19.2 34.6L6.3 21.7M5.3 44.5l7.4 7.3 7.3-7.3M20 71.1l-7.3-7.3-7.4 7.3"/>
  <circle class="st0" cx="10.7" cy="88.1" r="5.8"/>
  <path class="st0" d="M16.2 92.5l2.7 2.7"/>
  <path class="st1" d="M5.5 103.9c-1.7 1.7-1.7 4.6 0 6.3L13 118c2.5-2.6 5-5.2 7.6-7.7 1.7-1.7 1.7-4.6 0-6.3-1.7-1.7-4.4-1.7-6.2 0l-1.4 1.4-1.4-1.4c-1.7-1.8-4.4-1.8-6.1-.1"/>
  <path class="st2" d="M5.5 123.9c-1.7 1.7-1.7 4.6 0 6.3L13 138c2.5-2.6 5-5.2 7.6-7.7 1.7-1.7 1.7-4.6 0-6.3-1.7-1.7-4.4-1.7-6.2 0l-1.4 1.4-1.4-1.4c-1.7-1.8-4.4-1.8-6.1-.1"/>
  <path class="st3" d="M20.4 190.3l-7.3-7.3-7.4 7.3M13 189.5v5.3"/>
  <path d="M23.2 148l-1.9-.5-.2.6h-.6l-.1 1.2.7.3c0 .3-.4 1.7-1.6 2.1-.9.2-1.9 0-2.4-.2-.1-.3-.1-.5-.1-.5l-1.5-.7 2-1.3 1 .3 1.5-1.7-.8-.3 1.1-.3.4-1.8-2-.1.7-3.6-4.1 2.7-1.9-.2-3.8-3s.4 3.5.5 3.8l-1.6.2.4 1.8 1.5.2-1.1.2 1.2 1.6.8-.2 1.6 1-1.5.9c-1.6-1.3-3.7-3-4.2-3.8-.6-1.2.1-2.4.3-2.6l.7.3.7-.9-.4-.5.3-.5-1.7-1c-.1 0-.6.4-.7.6-.1.2-.2 1.2-.2 1.3 0 .1-.3 2.5.5 3.7.5.8 2.9 2.8 4.6 4.3l-.2 1.6c-1-.6-2.2-1.3-2.2-1.4-.1-.2.4 1.7.4 1.7l-1.8-1.9-.1 1.6-1.3-1.2s-2.4-.2-2.6-.3c-.2-.1 1.4 1.4 1.4 1.4l-3.4-1 1.6 2.5-1.1-.5 1.9 1.9 2.7.5-2.1.5 3.6.8s-.4.6-.6.8c.5-.1 2.5-.2 2.5-.2l1.2-.6.6 1.7s1.2 0 1.1-.2c-.1-.2-.8-2-.8-2l4.3.2.2 1.9.6-.1s.4-3.9.5-4.4c.1-.3-.2-1.6-.4-2.7.5.1 1.1.2 1.7.2.2 0 .4 0 .7-.1 1.5-.2 2.9-2.1 2.9-2.2.1-.1.7-.9.8-1.1 0-.1-.2-.7-.2-.8z"/>
  <path class="st4" d="M70.7 91.6s.1 0 .2-.1c-.2 0-.2 0-.2.1z"/>
  <path class="st5" d="M23.2 168l-1.9-.5-.2.6h-.6l-.1 1.2.7.3c0 .3-.4 1.7-1.6 2.1-.9.2-1.9 0-2.4-.2-.1-.3-.1-.5-.1-.5l-1.5-.7 2-1.3 1 .3 1.5-1.7-.8-.3 1.1-.3.4-1.8-2-.1.7-3.6-4.1 2.7-1.9-.2-3.8-3s.4 3.5.5 3.8l-1.6.2.4 1.8 1.5.2-1.1.2 1.2 1.6.8-.2 1.6 1-1.5.9c-1.6-1.3-3.7-3-4.2-3.8-.6-1.2.1-2.4.3-2.6l.7.3.7-.9-.4-.5.3-.5-1.7-1c-.1 0-.6.4-.7.6-.1.2-.2 1.2-.2 1.3 0 .1-.3 2.5.5 3.7.5.8 2.9 2.8 4.6 4.3l-.2 1.6c-1-.6-2.2-1.3-2.2-1.4-.1-.2.4 1.7.4 1.7l-1.8-1.9-.1 1.6-1.3-1.2s-2.4-.2-2.6-.3c-.2-.1 1.4 1.4 1.4 1.4l-3.4-1 1.6 2.5-1.1-.5 1.9 1.9 2.7.5-2.1.5 3.6.8s-.4.6-.6.8c.5-.1 2.5-.2 2.5-.2l1.2-.6.6 1.7s1.2 0 1.1-.2c-.1-.2-.8-2-.8-2l4.3.2.2 1.9.6-.1s.4-3.9.5-4.4c.1-.3-.2-1.6-.4-2.7.5.1 1.1.2 1.7.2.2 0 .4 0 .7-.1 1.5-.2 2.9-2.1 2.9-2.2.1-.1.7-.9.8-1.1 0-.1-.2-.7-.2-.8z"/>
</svg>
