<svg version="1.1" xmlns="http://www.w3.org/2000/svg" xmlns:xlink="http://www.w3.org/1999/xlink" x="0px" y="0px" viewBox="0 0 216 216" xml:space="preserve">
<path fill="#fff" d="M67.9,195.8c81.5,0,126.1-67.5,126.1-126.1c0-1.9,0-3.8-0.1-5.7c8.7-6.3,16.2-14.1,22.1-22.9
	c-7.9,3.5-16.5,5.9-25.4,7c9.1-5.5,16.2-14.2,19.5-24.5c-8.6,5.1-18,8.8-28.1,10.8c-8.1-8.6-19.6-14-32.3-14
	c-24.5,0-44.3,19.8-44.3,44.3c0,3.5,0.4,6.9,1.1,10.1C69.5,72.8,36.9,55.2,15,28.3c-3.8,6.5-6,14.2-6,22.3C9,66,16.9,79.6,28.8,87.5
	c-7.3-0.2-14.1-2.2-20.1-5.5c0,0.2,0,0.4,0,0.6C8.7,104,24,121.9,44.2,126c-3.7,1-7.6,1.6-11.7,1.6c-2.9,0-5.6-0.3-8.3-0.8
	c5.6,17.6,22,30.4,41.4,30.8c-15.2,11.9-34.3,19-55,19c-3.6,0-7.1-0.2-10.6-0.6C19.6,188.4,42.9,195.8,67.9,195.8"/>
</svg>
