<svg version="1.1" xmlns="http://www.w3.org/2000/svg" xmlns:xlink="http://www.w3.org/1999/xlink" x="0px" y="0px" viewBox="0 0 216 216" enable-background="new 0 0 216 216" xml:space="preserve">
<path fill="#fff" d="M204.1,0H11.9C5.3,0,0,5.3,0,11.9v192.2c0,6.6,5.3,11.9,11.9,11.9h103.5v-83.6H87.2V99.8h28.1
	v-24c0-27.9,17-43.1,41.9-43.1c11.9,0,22.2,0.9,25.2,1.3v29.2l-17.3,0c-13.5,0-16.2,6.4-16.2,15.9v20.8h32.3l-4.2,32.6H149V216h55
	c6.6,0,11.9-5.3,11.9-11.9V11.9C216,5.3,210.7,0,204.1,0z"/>
</svg>
